# xmcd
#
# Track frame offsets: 
#        150
#        17966
#        41313
#        58412
#        72362
#        95709
#        111812
#        136302
#        158535
#        184035
#        203976
#        221806
#
# Disc length: 3189 seconds
#
# Revision: 0
# Processed by: cddbd v1.5.2PL0 Copyright (c) Steve Scherf et al.
# Submitted via: ExactAudioCopy v1.3
#
DISCID=b10c730c
DTITLE=Dirty Deep - Back To The Roots
DYEAR=2012
DGENRE=Blues Rock
TTITLE0=Moments Of Doubt And Sorrow
TTITLE1=Time Is Going On
TTITLE2=I Expect Nothing
TTITLE3=A Cold Night
TTITLE4=I Can't Do The Things That I Used To Do
TTITLE5=Story # 1
TTITLE6=Dear Owner
TTITLE7=She Could Be The One
TTITLE8=On The Road
TTITLE9=Try To Forget You
TTITLE10=On My Mind
TTITLE11=Should I Go
EXTD=
EXTT0=
EXTT1=
EXTT2=
EXTT3=
EXTT4=
EXTT5=
EXTT6=
EXTT7=
EXTT8=
EXTT9=
EXTT10=
EXTT11=
PLAYORDER=
